<?xml version="1.0" encoding="UTF-8" standalone="no"?><!DOCTYPE svg PUBLIC "-//W3C//DTD SVG 1.1//EN" "http://www.w3.org/Graphics/SVG/1.1/DTD/svg11.dtd"><!-- Generated by graphviz version 2.40.1 (20161225.0304)
 --><!-- Title: G Pages: 1 --><svg xmlns="http://www.w3.org/2000/svg" xmlns:xlink="http://www.w3.org/1999/xlink" width="1061pt" height="917pt" viewBox="0.00 0.00 1060.73 916.84">
<g id="graph0" class="graph" transform="scale(1 1) rotate(0) translate(4 912.8425)">
<title>G</title>
<polygon fill="#ffffff" stroke="transparent" points="-4,4 -4,-912.8425 1056.7287,-912.8425 1056.7287,4 -4,4"/>
<!-- Главная страница -->
<g id="node1" class="node">
<title>Главная страница</title>
<polygon fill="none" stroke="#000000" points="673.9147,-36 421.7684,-18 673.9147,0 926.061,-18 673.9147,-36"/>
<polyline fill="none" stroke="#000000" points="433.7379,-18.8545 433.7379,-17.1455 "/>
<polyline fill="none" stroke="#000000" points="661.9452,-.8545 685.8842,-.8545 "/>
<polyline fill="none" stroke="#000000" points="914.0914,-17.1455 914.0914,-18.8545 "/>
<polyline fill="none" stroke="#000000" points="685.8842,-35.1455 661.9452,-35.1455 "/>
<text text-anchor="middle" x="673.9147" y="-13.8" font-family="Times,serif" font-size="14.00" fill="#000000">Главная страница</text>
</g>
<!-- О нас -->
<g id="node2" class="node">
<title>О нас</title>
<ellipse fill="none" stroke="#000000" cx="990.9933" cy="-454.4212" rx="61.9718" ry="18"/>
<text text-anchor="middle" x="990.9933" y="-450.2212" font-family="Times,serif" font-size="14.00" fill="#000000">О нас</text>
</g>
<!-- Главная страница&#45;&gt;О нас -->
<g id="edge17" class="edge">
<title>Главная страница-&gt;О нас</title>
<path fill="none" stroke="#000000" d="M683.1764,-35.3964C726.0875,-103.1143 904.2525,-348.772 968.1698,-428.9597"/>
<polygon fill="#000000" stroke="#000000" points="965.6893,-431.4596 974.6895,-437.0495 971.1396,-427.0671 965.6893,-431.4596"/>
</g>
<!-- Галерея товаров -->
<g id="node3" class="node">
<title>Галерея товаров</title>
<ellipse fill="none" stroke="#000000" cx="160.8708" cy="-724.1444" rx="160.9386" ry="18"/>
<text text-anchor="middle" x="160.8708" y="-719.9444" font-family="Times,serif" font-size="14.00" fill="#000000">Галерея товаров</text>
</g>
<!-- Главная страница&#45;&gt;Галерея товаров -->
<g id="edge18" class="edge">
<title>Главная страница-&gt;Галерея товаров</title>
<path fill="none" stroke="#000000" d="M658.5481,-35.1387C583.0985,-129.2266 253.8,-582.268 176.8956,-697.4789"/>
<polygon fill="#000000" stroke="#000000" points="173.8041,-695.8089 171.2129,-706.082 179.645,-699.667 173.8041,-695.8089"/>
</g>
<!-- Отзывы -->
<g id="node4" class="node">
<title>Отзывы</title>
<ellipse fill="none" stroke="#000000" cx="673.9147" cy="-890.8425" rx="65.2291" ry="18"/>
<text text-anchor="middle" x="673.9147" y="-886.6425" font-family="Times,serif" font-size="14.00" fill="#000000">Отзывы</text>
</g>
<!-- Главная страница&#45;&gt;Отзывы -->
<g id="edge19" class="edge">
<title>Главная страница-&gt;Отзывы</title>
<path fill="none" stroke="#000000" d="M671.7938,-36.2306C665.7887,-146.7167 665.6262,-726.4464 671.3063,-862.3252"/>
<polygon fill="#000000" stroke="#000000" points="667.8291,-862.8894 671.7992,-872.7122 674.8212,-862.5575 667.8291,-862.8894"/>
</g>
<!-- Связаться с нами -->
<g id="node5" class="node">
<title>Связаться с нами</title>
<ellipse fill="none" stroke="#000000" cx="160.8708" cy="-184.6981" rx="160.7416" ry="18"/>
<text text-anchor="middle" x="160.8708" y="-180.4981" font-family="Times,serif" font-size="14.00" fill="#000000">Связаться с нами</text>
</g>
<!-- Главная страница&#45;&gt;Связаться с нами -->
<g id="edge20" class="edge">
<title>Главная страница-&gt;Связаться с нами</title>
<path fill="none" stroke="#000000" d="M616.6732,-31.9708C515.6352,-61.4612 307.3174,-129.1949 211.3231,-163.8183"/>
<polygon fill="#000000" stroke="#000000" points="210.0419,-160.5599 201.8391,-167.2655 212.4332,-167.1388 210.0419,-160.5599"/>
</g>
<!-- О нас&#45;&gt;Главная страница -->
<g id="edge4" class="edge">
<title>О нас-&gt;Главная страница</title>
<path fill="none" stroke="#000000" d="M981.3856,-436.4795C937.8514,-367.9669 760.3213,-123.2097 696.65,-43.3509"/>
<polygon fill="#000000" stroke="#000000" points="699.1565,-40.8833 690.1555,-35.2947 693.7068,-45.2766 699.1565,-40.8833"/>
</g>
<!-- О нас&#45;&gt;Галерея товаров -->
<g id="edge1" class="edge">
<title>О нас-&gt;Галерея товаров</title>
<path fill="none" stroke="#000000" d="M944.1599,-466.1677C800.2481,-508.1775 365.131,-649.4714 213.5885,-703.2921"/>
<polygon fill="#000000" stroke="#000000" points="212.2629,-700.049 204.0229,-706.7087 214.6175,-706.6411 212.2629,-700.049"/>
</g>
<!-- О нас&#45;&gt;Отзывы -->
<g id="edge2" class="edge">
<title>О нас-&gt;Отзывы</title>
<path fill="none" stroke="#000000" d="M974.5386,-471.9778C919.3388,-539.6258 742.2854,-783.1282 689.0637,-864.328"/>
<polygon fill="#000000" stroke="#000000" points="685.9646,-862.6752 683.4761,-872.9736 691.8436,-866.4748 685.9646,-862.6752"/>
</g>
<!-- О нас&#45;&gt;Связаться с нами -->
<g id="edge3" class="edge">
<title>О нас-&gt;Связаться с нами</title>
<path fill="none" stroke="#000000" d="M955.1776,-439.6374C829.2608,-393.8382 405.3602,-255.7508 233.8259,-204.1948"/>
<polygon fill="#000000" stroke="#000000" points="234.7091,-200.8058 224.1254,-201.2914 232.7019,-207.5119 234.7091,-200.8058"/>
</g>
<!-- Галерея товаров&#45;&gt;Главная страница -->
<g id="edge8" class="edge">
<title>Галерея товаров-&gt;Главная страница</title>
<path fill="none" stroke="#000000" d="M177.087,-705.9444C254.3288,-609.3084 583.0004,-157.0692 658.4917,-43.763"/>
<polygon fill="#000000" stroke="#000000" points="661.4774,-45.5929 664.0578,-35.3171 655.6325,-41.741 661.4774,-45.5929"/>
</g>
<!-- Галерея товаров&#45;&gt;О нас -->
<g id="edge5" class="edge">
<title>Галерея товаров-&gt;О нас</title>
<path fill="none" stroke="#000000" d="M224.0887,-707.562C384.8943,-659.6502 806.5701,-522.4821 945.722,-472.6174"/>
<polygon fill="#000000" stroke="#000000" points="947.0272,-475.8674 955.2452,-469.1804 944.6509,-469.283 947.0272,-475.8674"/>
</g>
<!-- Галерея товаров&#45;&gt;Отзывы -->
<g id="edge6" class="edge">
<title>Галерея товаров-&gt;Отзывы</title>
<path fill="none" stroke="#000000" d="M202.0777,-741.6644C292.6082,-774.8341 509.1096,-845.37 614.4001,-876.2071"/>
<polygon fill="#000000" stroke="#000000" points="613.6549,-879.6352 624.2344,-879.0648 615.6083,-872.9133 613.6549,-879.6352"/>
</g>
<!-- Галерея товаров&#45;&gt;Связаться с нами -->
<g id="edge7" class="edge">
<title>Галерея товаров-&gt;Связаться с нами</title>
<path fill="none" stroke="#000000" d="M163.5215,-705.8869C168.7845,-626.406 168.9797,-310.2094 164.1071,-213.1681"/>
<polygon fill="#000000" stroke="#000000" points="167.5881,-212.7342 163.5212,-202.951 160.5995,-213.135 167.5881,-212.7342"/>
</g>
<!-- Отзывы&#45;&gt;Главная страница -->
<g id="edge12" class="edge">
<title>Отзывы-&gt;Главная страница</title>
<path fill="none" stroke="#000000" d="M676.0356,-872.6119C682.0407,-762.1258 682.2032,-182.3961 676.523,-46.5173"/>
<polygon fill="#000000" stroke="#000000" points="680.0003,-45.9531 676.0301,-36.1302 673.0082,-46.2849 680.0003,-45.9531"/>
</g>
<!-- Отзывы&#45;&gt;О нас -->
<g id="edge9" class="edge">
<title>Отзывы-&gt;О нас</title>
<path fill="none" stroke="#000000" d="M690.3693,-873.2859C745.5691,-805.6379 922.6226,-562.1355 975.8443,-480.9357"/>
<polygon fill="#000000" stroke="#000000" points="978.9434,-482.5885 981.4319,-472.2901 973.0643,-478.7889 978.9434,-482.5885"/>
</g>
<!-- Отзывы&#45;&gt;Галерея товаров -->
<g id="edge10" class="edge">
<title>Отзывы-&gt;Галерея товаров</title>
<path fill="none" stroke="#000000" d="M638.9717,-875.6327C556.6548,-845.0576 349.0695,-777.1723 236.4075,-743.5214"/>
<polygon fill="#000000" stroke="#000000" points="237.3867,-740.1612 226.804,-740.6681 235.393,-746.8713 237.3867,-740.1612"/>
</g>
<!-- Отзывы&#45;&gt;Связаться с нами -->
<g id="edge11" class="edge">
<title>Отзывы-&gt;Связаться с нами</title>
<path fill="none" stroke="#000000" d="M663.5598,-872.7605C600.7451,-776.4391 272.5724,-324.4184 183.2553,-210.6891"/>
<polygon fill="#000000" stroke="#000000" points="185.9583,-208.4645 177.0065,-202.7973 180.4703,-212.81 185.9583,-208.4645"/>
</g>
<!-- Связаться с нами&#45;&gt;Главная страница -->
<g id="edge16" class="edge">
<title>Связаться с нами-&gt;Главная страница</title>
<path fill="none" stroke="#000000" d="M226.5068,-168.2622C332.2315,-137.0389 537.5532,-70.1277 628.5861,-37.0244"/>
<polygon fill="#000000" stroke="#000000" points="629.8892,-40.2745 638.0715,-33.5438 627.4778,-33.7029 629.8892,-40.2745"/>
</g>
<!-- Связаться с нами&#45;&gt;О нас -->
<g id="edge13" class="edge">
<title>Связаться с нами-&gt;О нас</title>
<path fill="none" stroke="#000000" d="M203.9132,-202.0943C342.5568,-251.9308 777.4898,-393.3727 934.0969,-439.7161"/>
<polygon fill="#000000" stroke="#000000" points="933.4225,-443.1659 944.0038,-442.6292 935.3973,-436.4502 933.4225,-443.1659"/>
</g>
<!-- Связаться с нами&#45;&gt;Галерея товаров -->
<g id="edge14" class="edge">
<title>Связаться с нами-&gt;Галерея товаров</title>
<path fill="none" stroke="#000000" d="M158.2201,-202.9555C152.9571,-282.4365 152.7618,-598.633 157.6344,-695.6743"/>
<polygon fill="#000000" stroke="#000000" points="154.1535,-696.1083 158.2204,-705.8915 161.142,-695.7075 154.1535,-696.1083"/>
</g>
<!-- Связаться с нами&#45;&gt;Отзывы -->
<g id="edge15" class="edge">
<title>Связаться с нами-&gt;Отзывы</title>
<path fill="none" stroke="#000000" d="M171.2257,-202.78C234.1092,-299.207 562.9331,-752.1138 651.8231,-865.2243"/>
<polygon fill="#000000" stroke="#000000" points="649.0838,-867.4031 658.0378,-873.0668 654.5701,-863.0555 649.0838,-867.4031"/>
</g>
</g>
</svg>